<svg width="59" height="57" viewBox="0 0 59 57" fill="none" xmlns="http://www.w3.org/2000/svg">
<path d="M14.8225 39.765C14.8225 41.2 14.175 42.355 12.88 43.23C11.585 44.105 9.8525 44.5425 7.6825 44.5425C5.62917 44.5425 4.03667 44.14 2.905 43.335C1.77333 42.53 1.2075 41.4567 1.2075 40.115C1.2075 39.2867 1.435 38.6158 1.89 38.1025C2.35667 37.5775 2.98667 37.315 3.78 37.315C4.43333 37.315 4.97 37.5483 5.39 38.015C5.82167 38.4817 6.0375 39.1292 6.0375 39.9575V41.235C6.0375 41.83 6.18333 42.2967 6.475 42.635C6.77833 42.9733 7.26833 43.1425 7.945 43.1425C8.65667 43.1425 9.24 42.95 9.695 42.565C10.15 42.18 10.3775 41.62 10.3775 40.885C10.3775 40.3133 10.2492 39.7767 9.9925 39.275C9.73583 38.7733 9.43833 38.2425 9.1 37.6825C8.76167 37.1225 8.46417 36.4808 8.2075 35.7575C7.95083 35.0225 7.8225 34.1475 7.8225 33.1325V22.23C7.8225 21.9617 7.7525 21.7458 7.6125 21.5825C7.48417 21.4192 7.27417 21.3142 6.9825 21.2675L5.74 21.04C5.47167 20.9933 5.27333 20.9058 5.145 20.7775C5.02833 20.6492 4.97 20.4683 4.97 20.235C4.97 20.0017 5.04583 19.8208 5.1975 19.6925C5.36083 19.5642 5.60583 19.5 5.9325 19.5H14.7875C15.1142 19.5 15.3533 19.5642 15.505 19.6925C15.6683 19.8208 15.75 20.0017 15.75 20.235C15.75 20.62 15.5108 20.8883 15.0325 21.04L14.0175 21.25C13.7492 21.3317 13.5392 21.4483 13.3875 21.6C13.2475 21.7517 13.1775 21.9558 13.1775 22.2125V32.8175C13.1775 33.6575 13.2592 34.375 13.4225 34.97C13.5858 35.565 13.7725 36.1075 13.9825 36.5975C14.2042 37.0875 14.3967 37.5833 14.56 38.085C14.735 38.575 14.8225 39.135 14.8225 39.765Z" fill="#333333"/>
<path d="M20.325 26.645C20.325 26.855 20.385 27.03 20.505 27.17C20.635 27.3 20.82 27.395 21.06 27.455L21.945 27.65C22.335 27.78 22.53 28.015 22.53 28.355C22.53 28.555 22.465 28.715 22.335 28.835C22.205 28.945 21.995 29 21.705 29H14.34C14.06 29 13.85 28.945 13.71 28.835C13.58 28.715 13.515 28.555 13.515 28.355C13.515 28.015 13.71 27.78 14.1 27.65L14.985 27.455C15.225 27.395 15.405 27.3 15.525 27.17C15.655 27.03 15.72 26.855 15.72 26.645V10.355C15.72 10.145 15.655 9.975 15.525 9.845C15.405 9.705 15.225 9.605 14.985 9.545L14.1 9.35C13.71 9.23 13.515 8.995 13.515 8.645C13.515 8.435 13.58 8.275 13.71 8.165C13.85 8.055 14.06 8 14.34 8H21.705C21.995 8 22.205 8.055 22.335 8.165C22.465 8.275 22.53 8.435 22.53 8.645C22.53 8.995 22.335 9.23 21.945 9.35L21.06 9.545C20.82 9.605 20.635 9.705 20.505 9.845C20.385 9.975 20.325 10.145 20.325 10.355V26.645Z" fill="#333333"/>
<path d="M27.12 21.984H32.128C32.8107 21.984 33.2907 21.8507 33.568 21.584C33.856 21.3067 34.0693 20.784 34.208 20.016C34.272 19.7707 34.3627 19.5893 34.48 19.472C34.5973 19.3547 34.7467 19.2907 34.928 19.28C35.312 19.2587 35.5573 19.472 35.664 19.92L36.928 24.752C36.992 25.008 36.992 25.2107 36.928 25.36C36.864 25.5093 36.7307 25.616 36.528 25.68C36.336 25.744 36.1547 25.7493 35.984 25.696C35.8133 25.632 35.6693 25.5093 35.552 25.328C35.232 24.816 34.9387 24.4267 34.672 24.16C34.416 23.8827 34.128 23.696 33.808 23.6C33.488 23.4933 33.0827 23.44 32.592 23.44H27.12V21.984ZM21.616 12.272C21.616 12.0587 21.6853 11.8933 21.824 11.776C21.9733 11.6587 22.1973 11.6 22.496 11.6H34.816C35.1787 11.6 35.4827 11.5467 35.728 11.44C35.9733 11.3333 36.2027 11.232 36.416 11.136C36.6293 11.0293 36.864 10.976 37.12 10.976C37.4187 10.976 37.6427 11.0613 37.792 11.232C37.952 11.392 38.0853 11.6693 38.192 12.064L39.488 16.688C39.5627 16.9333 39.5573 17.1413 39.472 17.312C39.3973 17.472 39.2533 17.5893 39.04 17.664C38.7947 17.7387 38.5707 17.7333 38.368 17.648C38.176 17.552 38.0213 17.3813 37.904 17.136C37.4667 16.272 37.0613 15.5787 36.688 15.056C36.3253 14.5227 35.9573 14.112 35.584 13.824C35.2213 13.536 34.832 13.344 34.416 13.248C34.0107 13.1413 33.536 13.088 32.992 13.088H28.88V31.024C28.88 31.5253 29.0187 31.8987 29.296 32.144C29.584 32.3893 30.0107 32.512 30.576 32.512H33.44C34.1547 32.512 34.7787 32.3893 35.312 32.144C35.856 31.8987 36.384 31.424 36.896 30.72C37.408 30.0053 37.9733 28.9547 38.592 27.568C38.6987 27.344 38.832 27.1947 38.992 27.12C39.1627 27.0347 39.3547 27.008 39.568 27.04C39.8133 27.0827 39.9893 27.1947 40.096 27.376C40.2027 27.5467 40.2133 27.7707 40.128 28.048L38.736 33.472C38.6293 33.8453 38.496 34.1227 38.336 34.304C38.176 34.4853 37.936 34.576 37.616 34.576C37.3813 34.576 37.1573 34.528 36.944 34.432C36.7413 34.336 36.512 34.24 36.256 34.144C36 34.048 35.6907 34 35.328 34H22.496C22.1973 34 21.9733 33.9413 21.824 33.824C21.6853 33.696 21.616 33.5307 21.616 33.328C21.616 32.9547 21.824 32.704 22.24 32.576L23.184 32.368C23.4507 32.304 23.648 32.2027 23.776 32.064C23.904 31.9147 23.968 31.728 23.968 31.504V14.096C23.968 13.872 23.904 13.6907 23.776 13.552C23.648 13.4027 23.4507 13.296 23.184 13.232L22.24 13.024C21.824 12.896 21.616 12.6453 21.616 12.272Z" fill="#333333"/>
<path d="M44.775 35.5L44.325 28.075C44.3 27.7083 44.2083 27.425 44.05 27.225C43.8917 27.025 43.6417 26.8833 43.3 26.8L42.6875 26.675C42.4458 26.6167 42.275 26.5375 42.175 26.4375C42.0833 26.3375 42.0375 26.2083 42.0375 26.05C42.0375 25.8833 42.0958 25.75 42.2125 25.65C42.3375 25.55 42.5083 25.5 42.725 25.5H47.25C47.475 25.5 47.6458 25.55 47.7625 25.65C47.8792 25.75 47.9375 25.8833 47.9375 26.05C47.9375 26.2083 47.8875 26.3375 47.7875 26.4375C47.6875 26.5292 47.5167 26.6083 47.275 26.675L46.7125 26.7875C46.2958 26.8958 46.0125 27.0625 45.8625 27.2875C45.7208 27.5125 45.6625 27.8042 45.6875 28.1625L46.15 35.4875C46.1833 35.9125 46.2083 36.3333 46.225 36.75C46.25 37.1583 46.2667 37.5833 46.275 38.025C46.3 39.0583 46.0708 39.9833 45.5875 40.8C45.1042 41.6167 44.3667 42.2625 43.375 42.7375C42.3917 43.2042 41.1417 43.4375 39.625 43.4375C38.0417 43.4375 36.7208 43.2167 35.6625 42.775C34.6042 42.3333 33.8125 41.7125 33.2875 40.9125C32.7625 40.1042 32.5042 39.1583 32.5125 38.075C32.5208 37.875 32.5292 37.625 32.5375 37.325C32.5542 37.0167 32.575 36.6667 32.6 36.275C32.625 35.875 32.65 35.4417 32.675 34.975L33.1 27.575C33.1167 27.3417 33.0667 27.1667 32.95 27.05C32.8333 26.9333 32.6292 26.85 32.3375 26.8L31.6875 26.675C31.2458 26.5833 31.025 26.375 31.025 26.05C31.025 25.8833 31.0833 25.75 31.2 25.65C31.325 25.55 31.5 25.5 31.725 25.5H38.3125C38.5375 25.5 38.7083 25.55 38.825 25.65C38.95 25.75 39.0125 25.8833 39.0125 26.05C39.0125 26.2083 38.9625 26.3375 38.8625 26.4375C38.7625 26.5375 38.5917 26.6125 38.35 26.6625L37.675 26.8C37.4333 26.8417 37.2583 26.9208 37.15 27.0375C37.0417 27.1542 36.9792 27.325 36.9625 27.55L36.5375 34.9625C36.5042 35.5375 36.4792 36.0667 36.4625 36.55C36.4542 37.025 36.4458 37.4458 36.4375 37.8125C36.4208 39.2708 36.7708 40.3458 37.4875 41.0375C38.2125 41.7208 39.2167 42.0625 40.5 42.0625C41.4167 42.0625 42.2042 41.9 42.8625 41.575C43.5208 41.25 44.025 40.7875 44.375 40.1875C44.7333 39.5792 44.9 38.8583 44.875 38.025C44.8667 37.4417 44.8542 36.9583 44.8375 36.575C44.8208 36.1917 44.8 35.8333 44.775 35.5Z" fill="#333333"/>
<path d="M45.209 49.4195C45.209 49.5905 45.146 49.73 45.02 49.838C44.894 49.937 44.696 49.991 44.426 50H39.89C39.629 49.991 39.431 49.937 39.296 49.838C39.17 49.73 39.107 49.5905 39.107 49.4195C39.107 49.1225 39.296 48.902 39.674 48.758L40.322 48.569C40.736 48.416 41.0195 48.2405 41.1725 48.0425C41.3345 47.8445 41.4155 47.534 41.4155 47.111V35.231C41.4155 34.952 41.384 34.727 41.321 34.556C41.258 34.385 41.1005 34.1465 40.8485 33.8405L39.701 32.369C39.566 32.18 39.4715 32.036 39.4175 31.937C39.3635 31.829 39.3365 31.721 39.3365 31.613C39.3365 31.451 39.395 31.325 39.512 31.235C39.629 31.145 39.7865 31.1 39.9845 31.1H43.1435C43.3955 31.1 43.6025 31.145 43.7645 31.235C43.9355 31.325 44.111 31.4915 44.291 31.7345L54.713 45.8015L54.1055 47.2865V33.989C54.1055 33.575 54.0335 33.269 53.8895 33.071C53.7455 32.864 53.453 32.684 53.012 32.531L52.337 32.342C51.959 32.18 51.77 31.9595 51.77 31.6805C51.77 31.5005 51.833 31.361 51.959 31.262C52.094 31.154 52.292 31.1 52.553 31.1H57.089C57.35 31.1 57.5435 31.154 57.6695 31.262C57.8045 31.361 57.872 31.5005 57.872 31.6805C57.872 31.9685 57.683 32.189 57.305 32.342L56.657 32.531C56.243 32.675 55.955 32.846 55.793 33.044C55.64 33.242 55.5635 33.557 55.5635 33.989V46.22C55.5635 46.499 55.586 46.7375 55.631 46.9355C55.685 47.1335 55.775 47.318 55.901 47.489L56.738 48.623C56.9 48.839 56.999 49.001 57.035 49.109C57.08 49.217 57.1025 49.3295 57.1025 49.4465C57.1025 49.6085 57.044 49.7435 56.927 49.8515C56.81 49.9505 56.6435 50 56.4275 50H52.8095C52.4045 50 52.202 49.8335 52.202 49.5005C52.202 49.3655 52.175 49.235 52.121 49.109C52.067 48.983 51.9185 48.758 51.6755 48.434L41.645 34.853L42.8735 34.0295V47.111C42.8735 47.525 42.9455 47.831 43.0895 48.029C43.2425 48.227 43.535 48.407 43.967 48.569L44.642 48.758C45.02 48.911 45.209 49.1315 45.209 49.4195Z" fill="#333333"/>
</svg>
